<svg width="134" height="73" viewBox="0 0 134 73" fill="none" xmlns="http://www.w3.org/2000/svg">
<g filter="url(#filter0_d_51_5457)">
<path d="M3.622 49V22.888H8.166L9.062 28.904H9.19C9.23267 28.7333 9.40334 28.328 9.702 27.688C10.0007 27.048 10.4913 26.3653 11.174 25.64C11.8567 24.872 12.774 24.2107 13.926 23.656C15.078 23.1013 16.5287 22.824 18.278 22.824C20.582 22.824 22.374 23.272 23.654 24.168C24.934 25.0213 25.8727 26.152 26.47 27.56C27.0673 28.9253 27.43 30.376 27.558 31.912C27.7287 33.448 27.814 34.8773 27.814 36.2V49H22.63V36.136C22.63 34.5147 22.4593 33.064 22.118 31.784C21.7767 30.4613 21.1367 29.4373 20.198 28.712C19.302 27.944 17.9793 27.56 16.23 27.56C14.438 27.56 13.0087 27.9867 11.942 28.84C10.8753 29.6933 10.1287 30.8027 9.702 32.168C9.27534 33.5333 9.062 34.984 9.062 36.52V49H3.622ZM46.1855 49.64C41.8335 49.64 38.5908 48.3813 36.4575 45.864C34.3242 43.3467 33.2575 40.1467 33.2575 36.264C33.2148 32.3387 34.2815 29.1173 36.4575 26.6C38.6335 24.0827 41.8762 22.8027 46.1855 22.76C50.3668 22.76 53.5455 23.9973 55.7215 26.472C57.8975 28.9467 58.9855 32.2107 58.9855 36.264C58.9855 38.7813 58.5162 41.064 57.5775 43.112C56.6815 45.1173 55.2735 46.7173 53.3535 47.912C51.4762 49.064 49.0868 49.64 46.1855 49.64ZM46.1855 45.096C48.2335 45.096 49.7908 44.648 50.8575 43.752C51.9668 42.856 52.7348 41.7253 53.1615 40.36C53.5882 38.952 53.8015 37.5227 53.8015 36.072C53.8015 34.6213 53.5882 33.2133 53.1615 31.848C52.7348 30.44 51.9668 29.288 50.8575 28.392C49.7908 27.4533 48.2335 26.984 46.1855 26.984C44.0948 26.984 42.4948 27.4533 41.3855 28.392C40.2762 29.288 39.5082 30.44 39.0815 31.848C38.6548 33.2133 38.4415 34.6213 38.4415 36.072C38.4415 37.5227 38.6548 38.952 39.0815 40.36C39.5082 41.7253 40.2762 42.856 41.3855 43.752C42.4948 44.648 44.0948 45.096 46.1855 45.096ZM70.9435 49H65.5675V12.968H70.9435V36.136L83.6155 22.696H90.2715L79.1355 33.896L90.4635 49H84.0635L75.4235 37.736L70.9435 42.216V49ZM100.348 49H94.9725V12.968H100.348V36.136L113.021 22.696H119.677L108.54 33.896L119.868 49H113.469L104.828 37.736L100.348 42.216V49ZM127.706 19.944C126.554 19.9867 125.786 19.7093 125.402 19.112C125.018 18.5147 124.826 17.768 124.826 16.872C124.826 16.104 125.018 15.4213 125.402 14.824C125.786 14.2267 126.554 13.928 127.706 13.928C128.815 13.928 129.562 14.2267 129.946 14.824C130.372 15.4213 130.586 16.104 130.586 16.872C130.586 17.768 130.372 18.5147 129.946 19.112C129.562 19.6667 128.815 19.944 127.706 19.944ZM125.018 49V22.824H130.33V49H125.018Z" fill="black"/>
</g>
<path d="M6.23961 70.14C5.43694 70.14 4.78361 69.888 4.27961 69.384C3.77561 68.88 3.52361 68.1847 3.52361 67.298C3.53294 66.71 3.65427 66.192 3.88761 65.744C4.12094 65.296 4.44294 64.946 4.85361 64.694C5.26427 64.442 5.74027 64.316 6.28161 64.316C6.97227 64.316 7.54161 64.5073 7.98961 64.89C8.44694 65.2633 8.72694 65.7347 8.82961 66.304H8.22761C8.13427 65.8653 7.91027 65.5247 7.55561 65.282C7.21027 65.03 6.79027 64.904 6.29561 64.904C5.65161 64.904 5.13361 65.1233 4.74161 65.562C4.34961 66.0007 4.15361 66.57 4.15361 67.27C4.15361 67.97 4.34027 68.5253 4.71361 68.936C5.09627 69.3467 5.60961 69.552 6.25361 69.552C6.75761 69.552 7.18694 69.426 7.54161 69.174C7.90561 68.922 8.13427 68.5767 8.22761 68.138H8.82961C8.72694 68.7167 8.44227 69.1973 7.97561 69.58C7.50894 69.9533 6.93027 70.14 6.23961 70.14ZM12.7123 70.14C11.8256 70.14 11.1583 69.8693 10.7103 69.328C10.2716 68.7773 10.0523 68.082 10.0523 67.242C10.0523 66.3833 10.2763 65.6833 10.7243 65.142C11.1723 64.5913 11.835 64.316 12.7123 64.316C13.571 64.316 14.2243 64.5867 14.6723 65.128C15.1296 65.66 15.3583 66.3647 15.3583 67.242C15.3583 67.7927 15.2603 68.2873 15.0643 68.726C14.8776 69.1553 14.5883 69.5007 14.1963 69.762C13.8136 70.014 13.319 70.14 12.7123 70.14ZM12.7123 69.566C13.235 69.566 13.641 69.4493 13.9303 69.216C14.2196 68.9827 14.4203 68.6887 14.5323 68.334C14.6536 67.97 14.7143 67.6013 14.7143 67.228C14.7143 66.8453 14.6536 66.4767 14.5323 66.122C14.4203 65.758 14.2196 65.4593 13.9303 65.226C13.641 64.9833 13.235 64.862 12.7123 64.862C12.1896 64.862 11.7836 64.9833 11.4943 65.226C11.205 65.4593 10.9996 65.758 10.8783 66.122C10.757 66.4767 10.6963 66.8453 10.6963 67.228C10.6963 67.6013 10.757 67.97 10.8783 68.334C10.9996 68.6887 11.205 68.9827 11.4943 69.216C11.7836 69.4493 12.1896 69.566 12.7123 69.566ZM16.789 70V64.316H17.321L17.377 65.828H17.405C17.433 65.744 17.4797 65.6227 17.545 65.464C17.6197 65.296 17.727 65.128 17.867 64.96C18.007 64.7827 18.1937 64.6333 18.427 64.512C18.6604 64.3813 18.9497 64.316 19.295 64.316C19.6684 64.316 19.967 64.3907 20.191 64.54C20.4244 64.68 20.6064 64.8667 20.737 65.1C20.8677 65.3333 20.961 65.576 21.017 65.828H21.045C21.073 65.744 21.1244 65.6227 21.199 65.464C21.283 65.296 21.3997 65.128 21.549 64.96C21.7077 64.7827 21.9084 64.6333 22.151 64.512C22.3937 64.3813 22.6877 64.316 23.033 64.316C23.4064 64.316 23.7097 64.3907 23.943 64.54C24.1764 64.6893 24.3584 64.8807 24.489 65.114C24.6197 65.338 24.713 65.5807 24.769 65.842C24.825 66.1033 24.8577 66.3553 24.867 66.598C24.8764 66.8313 24.881 67.0273 24.881 67.186V70H24.307V67.172C24.307 67.0133 24.2977 66.8127 24.279 66.57C24.2697 66.318 24.2184 66.066 24.125 65.814C24.041 65.5527 23.901 65.338 23.705 65.17C23.509 64.9927 23.229 64.904 22.865 64.904C22.4637 64.904 22.137 65.016 21.885 65.24C21.633 65.464 21.4417 65.758 21.311 66.122C21.1897 66.486 21.129 66.8827 21.129 67.312V70H20.555V67.172C20.555 67.0133 20.5457 66.8127 20.527 66.57C20.5177 66.318 20.4664 66.066 20.373 65.814C20.289 65.5527 20.149 65.338 19.953 65.17C19.757 64.9927 19.477 64.904 19.113 64.904C18.7117 64.904 18.385 65.016 18.133 65.24C17.881 65.464 17.6897 65.758 17.559 66.122C17.4377 66.486 17.377 66.8827 17.377 67.312V70H16.789ZM28.4949 70.14C27.8976 70.14 27.4402 70.0047 27.1229 69.734C26.8056 69.4633 26.5862 69.1133 26.4649 68.684C26.3529 68.2453 26.2969 67.7787 26.2969 67.284V64.316H26.9269V67.284C26.9269 67.7133 26.9689 68.1007 27.0529 68.446C27.1462 68.782 27.3142 69.0527 27.5569 69.258C27.8089 69.454 28.1729 69.552 28.6489 69.552C29.0969 69.552 29.4516 69.4493 29.7129 69.244C29.9836 69.0293 30.1842 68.7587 30.3149 68.432C30.4456 68.096 30.5202 67.7413 30.5389 67.368L30.5529 64.316H31.1969V70H30.6649L30.5529 68.642H30.5249C30.4689 68.838 30.3569 69.0527 30.1889 69.286C30.0209 69.5193 29.7969 69.72 29.5169 69.888C29.2462 70.056 28.9056 70.14 28.4949 70.14ZM32.7436 70V64.33H33.2756L33.3876 65.828H33.4156C33.4342 65.7627 33.4809 65.6507 33.5556 65.492C33.6302 65.3333 33.7469 65.1653 33.9056 64.988C34.0642 64.8013 34.2742 64.6427 34.5356 64.512C34.7969 64.3813 35.1236 64.316 35.5156 64.316C36.0009 64.316 36.3882 64.4047 36.6776 64.582C36.9669 64.75 37.1862 64.974 37.3356 65.254C37.4849 65.534 37.5829 65.842 37.6296 66.178C37.6762 66.514 37.6996 66.85 37.6996 67.186V70H37.0696V67.172C37.0696 66.4813 36.9482 65.9307 36.7056 65.52C36.4722 65.1093 36.0336 64.904 35.3896 64.904C34.9322 64.904 34.5542 65.016 34.2556 65.24C33.9662 65.4547 33.7469 65.7487 33.5976 66.122C33.4576 66.486 33.3876 66.8827 33.3876 67.312V70H32.7436ZM39.7232 63.714C39.5646 63.7233 39.4572 63.6813 39.4012 63.588C39.3452 63.4947 39.3172 63.3827 39.3172 63.252C39.3172 63.1307 39.3452 63.028 39.4012 62.944C39.4572 62.86 39.5646 62.818 39.7232 62.818C39.8726 62.818 39.9752 62.86 40.0312 62.944C40.0872 63.028 40.1152 63.1307 40.1152 63.252C40.1152 63.392 40.0872 63.504 40.0312 63.588C39.9752 63.672 39.8726 63.714 39.7232 63.714ZM39.3872 70V64.316H40.0172V70H39.3872ZM44.1911 70.14C43.3884 70.14 42.7351 69.888 42.2311 69.384C41.7271 68.88 41.4751 68.1847 41.4751 67.298C41.4844 66.71 41.6058 66.192 41.8391 65.744C42.0724 65.296 42.3944 64.946 42.8051 64.694C43.2158 64.442 43.6918 64.316 44.2331 64.316C44.9238 64.316 45.4931 64.5073 45.9411 64.89C46.3984 65.2633 46.6784 65.7347 46.7811 66.304H46.1791C46.0858 65.8653 45.8618 65.5247 45.5071 65.282C45.1618 65.03 44.7418 64.904 44.2471 64.904C43.6031 64.904 43.0851 65.1233 42.6931 65.562C42.3011 66.0007 42.1051 66.57 42.1051 67.27C42.1051 67.97 42.2918 68.5253 42.6651 68.936C43.0478 69.3467 43.5611 69.552 44.2051 69.552C44.7091 69.552 45.1384 69.426 45.4931 69.174C45.8571 68.922 46.0858 68.5767 46.1791 68.138H46.7811C46.6784 68.7167 46.3938 69.1973 45.9271 69.58C45.4604 69.9533 44.8818 70.14 44.1911 70.14ZM50.1738 70.126C49.6511 70.126 49.2171 69.9953 48.8718 69.734C48.5265 69.4727 48.2698 69.1227 48.1018 68.684C47.9338 68.236 47.8498 67.7413 47.8498 67.2C47.8498 66.64 47.9338 66.1407 48.1018 65.702C48.2791 65.254 48.5405 64.904 48.8858 64.652C49.2311 64.3907 49.6605 64.26 50.1738 64.26C50.7245 64.26 51.1631 64.3953 51.4898 64.666C51.8165 64.9273 52.0498 65.2307 52.1898 65.576H52.2178V64.316H52.8618V70H52.3298L52.2178 68.824H52.1898C52.0405 69.1693 51.8025 69.4727 51.4758 69.734C51.1491 69.9953 50.7151 70.126 50.1738 70.126ZM50.4118 69.538C51.0091 69.538 51.4571 69.3327 51.7558 68.922C52.0545 68.5113 52.2038 67.942 52.2038 67.214C52.2038 66.4393 52.0451 65.856 51.7278 65.464C51.4198 65.072 50.9811 64.876 50.4118 64.876C49.7491 64.876 49.2638 65.1 48.9558 65.548C48.6478 65.9867 48.4938 66.5373 48.4938 67.2C48.4938 67.8907 48.6525 68.4553 48.9698 68.894C49.2871 69.3233 49.7678 69.538 50.4118 69.538ZM56.755 70.14C55.9523 70.14 55.299 69.888 54.795 69.384C54.291 68.88 54.039 68.1847 54.039 67.298C54.0483 66.71 54.1697 66.192 54.403 65.744C54.6363 65.296 54.9583 64.946 55.369 64.694C55.7797 64.442 56.2557 64.316 56.797 64.316C57.4877 64.316 58.057 64.5073 58.505 64.89C58.9623 65.2633 59.2423 65.7347 59.345 66.304H58.743C58.6497 65.8653 58.4257 65.5247 58.071 65.282C57.7257 65.03 57.3057 64.904 56.811 64.904C56.167 64.904 55.649 65.1233 55.257 65.562C54.865 66.0007 54.669 66.57 54.669 67.27C54.669 67.97 54.8557 68.5253 55.229 68.936C55.6117 69.3467 56.125 69.552 56.769 69.552C57.273 69.552 57.7023 69.426 58.057 69.174C58.421 68.922 58.6497 68.5767 58.743 68.138H59.345C59.2423 68.7167 58.9577 69.1973 58.491 69.58C58.0243 69.9533 57.4457 70.14 56.755 70.14ZM55.495 71.708L55.761 71.344C55.8917 71.4933 56.0597 71.6053 56.265 71.68C56.4797 71.764 56.6897 71.8013 56.895 71.792C57.1097 71.792 57.287 71.7453 57.427 71.652C57.567 71.5587 57.6323 71.4187 57.623 71.232C57.6043 71.0453 57.5157 70.924 57.357 70.868C57.2077 70.812 57.0257 70.8073 56.811 70.854C56.6057 70.9007 56.419 70.9893 56.251 71.12L55.943 70.868L56.475 69.79L56.867 69.944L56.307 70.812C56.419 70.6907 56.573 70.5973 56.769 70.532C56.9743 70.476 57.1797 70.4573 57.385 70.476C57.5903 70.4947 57.763 70.5647 57.903 70.686C58.043 70.8073 58.113 70.9893 58.113 71.232C58.113 71.5027 58.0197 71.7173 57.833 71.876C57.6557 72.044 57.427 72.1513 57.147 72.198C56.867 72.254 56.5777 72.24 56.279 72.156C55.9897 72.0813 55.7283 71.932 55.495 71.708ZM62.7377 70.126C62.215 70.126 61.781 69.9953 61.4357 69.734C61.0904 69.4727 60.8337 69.1227 60.6657 68.684C60.4977 68.236 60.4137 67.7413 60.4137 67.2C60.4137 66.64 60.4977 66.1407 60.6657 65.702C60.843 65.254 61.1044 64.904 61.4497 64.652C61.795 64.3907 62.2244 64.26 62.7377 64.26C63.2884 64.26 63.727 64.3953 64.0537 64.666C64.3804 64.9273 64.6137 65.2307 64.7537 65.576H64.7817V64.316H65.4257V70H64.8937L64.7817 68.824H64.7537C64.6044 69.1693 64.3664 69.4727 64.0397 69.734C63.713 69.9953 63.279 70.126 62.7377 70.126ZM62.9757 69.538C63.573 69.538 64.021 69.3327 64.3197 68.922C64.6184 68.5113 64.7677 67.942 64.7677 67.214C64.7677 66.4393 64.609 65.856 64.2917 65.464C63.9837 65.072 63.545 64.876 62.9757 64.876C62.313 64.876 61.8277 65.1 61.5197 65.548C61.2117 65.9867 61.0577 66.5373 61.0577 67.2C61.0577 67.8907 61.2164 68.4553 61.5337 68.894C61.851 69.3233 62.3317 69.538 62.9757 69.538ZM63.7597 63.42C63.5544 63.42 63.391 63.3827 63.2697 63.308C63.1484 63.2333 63.041 63.1447 62.9477 63.042C62.8637 62.9393 62.775 62.8507 62.6817 62.776C62.5977 62.7013 62.495 62.664 62.3737 62.664C62.2057 62.664 62.103 62.7293 62.0657 62.86C62.0377 62.9907 62.0237 63.1727 62.0237 63.406H61.5477C61.5384 63.1167 61.5804 62.8507 61.6737 62.608C61.767 62.3653 61.991 62.244 62.3457 62.244C62.551 62.244 62.7144 62.286 62.8357 62.37C62.957 62.4447 63.0597 62.5333 63.1437 62.636C63.2277 62.7293 63.3117 62.8133 63.3957 62.888C63.489 62.9627 63.601 63 63.7317 63C63.8997 63 63.9977 62.9347 64.0257 62.804C64.063 62.6733 64.0817 62.4867 64.0817 62.244H64.5437C64.5624 62.5613 64.5204 62.8367 64.4177 63.07C64.315 63.3033 64.0957 63.42 63.7597 63.42ZM69.2909 70.14C68.4042 70.14 67.7369 69.8693 67.2889 69.328C66.8502 68.7773 66.6309 68.082 66.6309 67.242C66.6309 66.3833 66.8549 65.6833 67.3029 65.142C67.7509 64.5913 68.4136 64.316 69.2909 64.316C70.1496 64.316 70.8029 64.5867 71.2509 65.128C71.7082 65.66 71.9369 66.3647 71.9369 67.242C71.9369 67.7927 71.8389 68.2873 71.6429 68.726C71.4562 69.1553 71.1669 69.5007 70.7749 69.762C70.3922 70.014 69.8976 70.14 69.2909 70.14ZM69.2909 69.566C69.8136 69.566 70.2196 69.4493 70.5089 69.216C70.7982 68.9827 70.9989 68.6887 71.1109 68.334C71.2322 67.97 71.2929 67.6013 71.2929 67.228C71.2929 66.8453 71.2322 66.4767 71.1109 66.122C70.9989 65.758 70.7982 65.4593 70.5089 65.226C70.2196 64.9833 69.8136 64.862 69.2909 64.862C68.7682 64.862 68.3622 64.9833 68.0729 65.226C67.7836 65.4593 67.5782 65.758 67.4569 66.122C67.3356 66.4767 67.2749 66.8453 67.2749 67.228C67.2749 67.6013 67.3356 67.97 67.4569 68.334C67.5782 68.6887 67.7836 68.9827 68.0729 69.216C68.3622 69.4493 68.7682 69.566 69.2909 69.566ZM77.093 70V64.33H77.625L77.737 65.828H77.765C77.7836 65.7627 77.8303 65.6507 77.905 65.492C77.9796 65.3333 78.0963 65.1653 78.255 64.988C78.4136 64.8013 78.6236 64.6427 78.885 64.512C79.1463 64.3813 79.473 64.316 79.865 64.316C80.3503 64.316 80.7376 64.4047 81.027 64.582C81.3163 64.75 81.5356 64.974 81.685 65.254C81.8343 65.534 81.9323 65.842 81.979 66.178C82.0256 66.514 82.049 66.85 82.049 67.186V70H81.419V67.172C81.419 66.4813 81.2976 65.9307 81.055 65.52C80.8216 65.1093 80.383 64.904 79.739 64.904C79.2816 64.904 78.9036 65.016 78.605 65.24C78.3156 65.4547 78.0963 65.7487 77.947 66.122C77.807 66.486 77.737 66.8827 77.737 67.312V70H77.093ZM85.4866 70.126C84.9639 70.126 84.5299 69.9953 84.1846 69.734C83.8393 69.4727 83.5826 69.1227 83.4146 68.684C83.2466 68.236 83.1626 67.7413 83.1626 67.2C83.1626 66.64 83.2466 66.1407 83.4146 65.702C83.5919 65.254 83.8533 64.904 84.1986 64.652C84.5439 64.3907 84.9733 64.26 85.4866 64.26C86.0373 64.26 86.4759 64.3953 86.8026 64.666C87.1293 64.9273 87.3626 65.2307 87.5026 65.576H87.5306V64.316H88.1746V70H87.6426L87.5306 68.824H87.5026C87.3533 69.1693 87.1153 69.4727 86.7886 69.734C86.4619 69.9953 86.0279 70.126 85.4866 70.126ZM85.7246 69.538C86.3219 69.538 86.7699 69.3327 87.0686 68.922C87.3673 68.5113 87.5166 67.942 87.5166 67.214C87.5166 66.4393 87.3579 65.856 87.0406 65.464C86.7326 65.072 86.2939 64.876 85.7246 64.876C85.0619 64.876 84.5766 65.1 84.2686 65.548C83.9606 65.9867 83.8066 66.5373 83.8066 67.2C83.8066 67.8907 83.9653 68.4553 84.2826 68.894C84.5999 69.3233 85.0806 69.538 85.7246 69.538ZM86.5086 63.42C86.3033 63.42 86.1399 63.3827 86.0186 63.308C85.8973 63.2333 85.7899 63.1447 85.6966 63.042C85.6126 62.9393 85.5239 62.8507 85.4306 62.776C85.3466 62.7013 85.2439 62.664 85.1226 62.664C84.9546 62.664 84.8519 62.7293 84.8146 62.86C84.7866 62.9907 84.7726 63.1727 84.7726 63.406H84.2966C84.2873 63.1167 84.3293 62.8507 84.4226 62.608C84.5159 62.3653 84.7399 62.244 85.0946 62.244C85.2999 62.244 85.4633 62.286 85.5846 62.37C85.7059 62.4447 85.8086 62.5333 85.8926 62.636C85.9766 62.7293 86.0606 62.8133 86.1446 62.888C86.2379 62.9627 86.3499 63 86.4806 63C86.6486 63 86.7466 62.9347 86.7746 62.804C86.8119 62.6733 86.8306 62.4867 86.8306 62.244H87.2926C87.3113 62.5613 87.2693 62.8367 87.1666 63.07C87.0639 63.3033 86.8446 63.42 86.5086 63.42ZM92.0398 70.14C91.1531 70.14 90.4858 69.8693 90.0378 69.328C89.5991 68.7773 89.3798 68.082 89.3798 67.242C89.3798 66.3833 89.6038 65.6833 90.0518 65.142C90.4998 64.5913 91.1625 64.316 92.0398 64.316C92.8985 64.316 93.5518 64.5867 93.9998 65.128C94.4571 65.66 94.6858 66.3647 94.6858 67.242C94.6858 67.7927 94.5878 68.2873 94.3918 68.726C94.2051 69.1553 93.9158 69.5007 93.5238 69.762C93.1411 70.014 92.6465 70.14 92.0398 70.14ZM92.0398 69.566C92.5625 69.566 92.9685 69.4493 93.2578 69.216C93.5471 68.9827 93.7478 68.6887 93.8598 68.334C93.9811 67.97 94.0418 67.6013 94.0418 67.228C94.0418 66.8453 93.9811 66.4767 93.8598 66.122C93.7478 65.758 93.5471 65.4593 93.2578 65.226C92.9685 64.9833 92.5625 64.862 92.0398 64.862C91.5171 64.862 91.1111 64.9833 90.8218 65.226C90.5325 65.4593 90.3271 65.758 90.2058 66.122C90.0845 66.4767 90.0238 66.8453 90.0238 67.228C90.0238 67.6013 90.0845 67.97 90.2058 68.334C90.3271 68.6887 90.5325 68.9827 90.8218 69.216C91.1111 69.4493 91.5171 69.566 92.0398 69.566ZM96.1305 67.116V66.598H99.2385V67.116H96.1305ZM104.942 64.316H105.586V64.498L103.346 70H102.422L100.182 64.512V64.316H100.812L102.884 69.482H102.912L104.942 64.316ZM109.15 70.14C108.543 70.14 108.039 69.9953 107.638 69.706C107.246 69.4167 106.952 69.048 106.756 68.6C106.56 68.1427 106.467 67.6713 106.476 67.186C106.476 66.682 106.579 66.2107 106.784 65.772C106.989 65.3333 107.288 64.9833 107.68 64.722C108.081 64.4513 108.567 64.316 109.136 64.316C109.845 64.316 110.429 64.5493 110.886 65.016C111.353 65.4733 111.614 66.0893 111.67 66.864C111.679 66.9107 111.684 66.9667 111.684 67.032C111.684 67.0973 111.684 67.158 111.684 67.214H107.092C107.092 67.9327 107.269 68.5067 107.624 68.936C107.979 69.3653 108.487 69.58 109.15 69.58C109.626 69.58 110.037 69.454 110.382 69.202C110.737 68.95 110.956 68.6093 111.04 68.18H111.67C111.558 68.7587 111.273 69.23 110.816 69.594C110.368 69.958 109.813 70.14 109.15 70.14ZM107.134 66.794H111.026C111.017 66.5513 110.947 66.2807 110.816 65.982C110.695 65.6833 110.494 65.422 110.214 65.198C109.943 64.974 109.584 64.862 109.136 64.862C108.52 64.862 108.049 65.0533 107.722 65.436C107.395 65.8187 107.199 66.2713 107.134 66.794ZM113.312 70V64.316H113.858L113.942 65.772C114.036 65.3707 114.255 65.0253 114.6 64.736C114.946 64.4467 115.431 64.3067 116.056 64.316H116.364V65.03H116.056C115.422 65.03 114.955 65.1327 114.656 65.338C114.358 65.534 114.162 65.8 114.068 66.136C113.984 66.472 113.942 66.8453 113.942 67.256V70H113.312ZM120.357 70.14C119.984 70.14 119.662 70.0747 119.391 69.944C119.13 69.8133 118.915 69.6547 118.747 69.468C118.579 69.2813 118.448 69.1087 118.355 68.95C118.271 68.7913 118.22 68.6793 118.201 68.614H118.173L118.061 70H117.515V62.118H118.173L118.187 65.856H118.215C118.234 65.7907 118.28 65.6787 118.355 65.52C118.439 65.352 118.56 65.1793 118.719 65.002C118.887 64.8153 119.102 64.6567 119.363 64.526C119.634 64.386 119.965 64.316 120.357 64.316C120.898 64.316 121.356 64.4467 121.729 64.708C122.112 64.9693 122.401 65.3193 122.597 65.758C122.802 66.1967 122.905 66.6867 122.905 67.228C122.905 67.7787 122.802 68.2733 122.597 68.712C122.401 69.1507 122.112 69.5007 121.729 69.762C121.356 70.014 120.898 70.14 120.357 70.14ZM120.273 69.538C120.74 69.538 121.118 69.4307 121.407 69.216C121.706 68.992 121.92 68.7027 122.051 68.348C122.191 67.9933 122.261 67.62 122.261 67.228C122.261 66.836 122.186 66.4673 122.037 66.122C121.888 65.7673 121.659 65.4827 121.351 65.268C121.043 65.044 120.656 64.932 120.189 64.932C119.62 64.932 119.144 65.1373 118.761 65.548C118.388 65.9493 118.201 66.5093 118.201 67.228C118.201 67.9653 118.402 68.5347 118.803 68.936C119.214 69.3373 119.704 69.538 120.273 69.538ZM126.206 70.126C125.684 70.126 125.25 69.9953 124.904 69.734C124.559 69.4727 124.302 69.1227 124.134 68.684C123.966 68.236 123.882 67.7413 123.882 67.2C123.882 66.64 123.966 66.1407 124.134 65.702C124.312 65.254 124.573 64.904 124.918 64.652C125.264 64.3907 125.693 64.26 126.206 64.26C126.757 64.26 127.196 64.3953 127.522 64.666C127.849 64.9273 128.082 65.2307 128.222 65.576H128.25V64.316H128.894V70H128.362L128.25 68.824H128.222C128.073 69.1693 127.835 69.4727 127.508 69.734C127.182 69.9953 126.748 70.126 126.206 70.126ZM126.444 69.538C127.042 69.538 127.49 69.3327 127.788 68.922C128.087 68.5113 128.236 67.942 128.236 67.214C128.236 66.4393 128.078 65.856 127.76 65.464C127.452 65.072 127.014 64.876 126.444 64.876C125.782 64.876 125.296 65.1 124.988 65.548C124.68 65.9867 124.526 66.5373 124.526 67.2C124.526 67.8907 124.685 68.4553 125.002 68.894C125.32 69.3233 125.8 69.538 126.444 69.538ZM130.45 70V62.118H131.094V70H130.45Z" fill="black"/>
<defs>
<filter id="filter0_d_51_5457" x="0.621948" y="10.968" width="132.964" height="42.672" filterUnits="userSpaceOnUse" color-interpolation-filters="sRGB">
<feFlood flood-opacity="0" result="BackgroundImageFix"/>
<feColorMatrix in="SourceAlpha" type="matrix" values="0 0 0 0 0 0 0 0 0 0 0 0 0 0 0 0 0 0 127 0" result="hardAlpha"/>
<feOffset dy="1"/>
<feGaussianBlur stdDeviation="1.5"/>
<feComposite in2="hardAlpha" operator="out"/>
<feColorMatrix type="matrix" values="0 0 0 0 0 0 0 0 0 0 0 0 0 0 0 0 0 0 0.25 0"/>
<feBlend mode="normal" in2="BackgroundImageFix" result="effect1_dropShadow_51_5457"/>
<feBlend mode="normal" in="SourceGraphic" in2="effect1_dropShadow_51_5457" result="shape"/>
</filter>
</defs>
</svg>
