<svg width="134" height="54" viewBox="0 0 134 54" fill="none" xmlns="http://www.w3.org/2000/svg">
<g filter="url(#filter0_d_51_5460)">
<path d="M3.622 49V22.888H8.166L9.062 28.904H9.19C9.23267 28.7333 9.40334 28.328 9.702 27.688C10.0007 27.048 10.4913 26.3653 11.174 25.64C11.8567 24.872 12.774 24.2107 13.926 23.656C15.078 23.1013 16.5287 22.824 18.278 22.824C20.582 22.824 22.374 23.272 23.654 24.168C24.934 25.0213 25.8727 26.152 26.47 27.56C27.0673 28.9253 27.43 30.376 27.558 31.912C27.7287 33.448 27.814 34.8773 27.814 36.2V49H22.63V36.136C22.63 34.5147 22.4593 33.064 22.118 31.784C21.7767 30.4613 21.1367 29.4373 20.198 28.712C19.302 27.944 17.9793 27.56 16.23 27.56C14.438 27.56 13.0087 27.9867 11.942 28.84C10.8753 29.6933 10.1287 30.8027 9.702 32.168C9.27534 33.5333 9.062 34.984 9.062 36.52V49H3.622ZM46.1855 49.64C41.8335 49.64 38.5908 48.3813 36.4575 45.864C34.3242 43.3467 33.2575 40.1467 33.2575 36.264C33.2148 32.3387 34.2815 29.1173 36.4575 26.6C38.6335 24.0827 41.8762 22.8027 46.1855 22.76C50.3668 22.76 53.5455 23.9973 55.7215 26.472C57.8975 28.9467 58.9855 32.2107 58.9855 36.264C58.9855 38.7813 58.5162 41.064 57.5775 43.112C56.6815 45.1173 55.2735 46.7173 53.3535 47.912C51.4762 49.064 49.0868 49.64 46.1855 49.64ZM46.1855 45.096C48.2335 45.096 49.7908 44.648 50.8575 43.752C51.9668 42.856 52.7348 41.7253 53.1615 40.36C53.5882 38.952 53.8015 37.5227 53.8015 36.072C53.8015 34.6213 53.5882 33.2133 53.1615 31.848C52.7348 30.44 51.9668 29.288 50.8575 28.392C49.7908 27.4533 48.2335 26.984 46.1855 26.984C44.0948 26.984 42.4948 27.4533 41.3855 28.392C40.2762 29.288 39.5082 30.44 39.0815 31.848C38.6548 33.2133 38.4415 34.6213 38.4415 36.072C38.4415 37.5227 38.6548 38.952 39.0815 40.36C39.5082 41.7253 40.2762 42.856 41.3855 43.752C42.4948 44.648 44.0948 45.096 46.1855 45.096ZM70.9435 49H65.5675V12.968H70.9435V36.136L83.6155 22.696H90.2715L79.1355 33.896L90.4635 49H84.0635L75.4235 37.736L70.9435 42.216V49ZM100.348 49H94.9725V12.968H100.348V36.136L113.021 22.696H119.677L108.54 33.896L119.868 49H113.469L104.828 37.736L100.348 42.216V49ZM127.706 19.944C126.554 19.9867 125.786 19.7093 125.402 19.112C125.018 18.5147 124.826 17.768 124.826 16.872C124.826 16.104 125.018 15.4213 125.402 14.824C125.786 14.2267 126.554 13.928 127.706 13.928C128.815 13.928 129.562 14.2267 129.946 14.824C130.372 15.4213 130.586 16.104 130.586 16.872C130.586 17.768 130.372 18.5147 129.946 19.112C129.562 19.6667 128.815 19.944 127.706 19.944ZM125.018 49V22.824H130.33V49H125.018Z" fill="black"/>
</g>
<defs>
<filter id="filter0_d_51_5460" x="0.621948" y="10.968" width="132.964" height="42.672" filterUnits="userSpaceOnUse" color-interpolation-filters="sRGB">
<feFlood flood-opacity="0" result="BackgroundImageFix"/>
<feColorMatrix in="SourceAlpha" type="matrix" values="0 0 0 0 0 0 0 0 0 0 0 0 0 0 0 0 0 0 127 0" result="hardAlpha"/>
<feOffset dy="1"/>
<feGaussianBlur stdDeviation="1.5"/>
<feComposite in2="hardAlpha" operator="out"/>
<feColorMatrix type="matrix" values="0 0 0 0 0 0 0 0 0 0 0 0 0 0 0 0 0 0 0.25 0"/>
<feBlend mode="normal" in2="BackgroundImageFix" result="effect1_dropShadow_51_5460"/>
<feBlend mode="normal" in="SourceGraphic" in2="effect1_dropShadow_51_5460" result="shape"/>
</filter>
</defs>
</svg>
